<svg xmlns="http://www.w3.org/2000/svg" width="1280" height="800" viewBox="0 0 1280 800">
  <defs>
    <linearGradient id="bg" x1="0" y1="0" x2="1" y2="1">
      <stop offset="0%" stop-color="#f8fafc"/>
      <stop offset="100%" stop-color="#e2e8f0"/>
    </linearGradient>
  </defs>
  <rect width="1280" height="800" fill="url(#bg)"/>
  <text x="60" y="70" font-size="36" font-family="Arial, sans-serif" fill="#0f172a" font-weight="700">Add Remote Torrent - Popup</text>
  <rect x="440" y="110" width="400" height="640" rx="18" fill="#ffffff" stroke="#cbd5e1" stroke-width="2"/>
  <text x="470" y="150" font-size="20" font-family="Arial, sans-serif" fill="#1e293b" font-weight="700">Quick Add</text>
  <rect x="470" y="170" width="340" height="38" rx="8" fill="#f1f5f9" stroke="#cbd5e1"/>
  <text x="482" y="195" font-size="14" font-family="Arial, sans-serif" fill="#334155">Active: Home qBittorrent</text>
  <rect x="470" y="220" width="340" height="58" rx="10" fill="#eff6ff" stroke="#93c5fd"/>
  <text x="482" y="244" font-size="14" font-family="Arial, sans-serif" fill="#1d4ed8">DL 12.4 MB/s   UL 1.2 MB/s</text>
  <text x="482" y="263" font-size="12" font-family="Arial, sans-serif" fill="#475569">3 active torrents</text>
  <rect x="470" y="292" width="260" height="70" rx="8" fill="#f8fafc" stroke="#cbd5e1"/>
  <rect x="740" y="292" width="70" height="70" rx="8" fill="#2563eb"/>
  <text x="760" y="334" font-size="18" font-family="Arial, sans-serif" fill="#ffffff" font-weight="700">Add</text>
  <text x="482" y="312" font-size="12" font-family="Arial, sans-serif" fill="#64748b">Manual add</text>
  <text x="482" y="332" font-size="12" font-family="Arial, sans-serif" fill="#64748b">magnet:?xt=urn:btih:...</text>
  <text x="482" y="350" font-size="12" font-family="Arial, sans-serif" fill="#64748b">https://tracker/torrent</text>
  <text x="470" y="392" font-size="14" font-family="Arial, sans-serif" fill="#334155" font-weight="700">Active Torrents</text>
  <rect x="470" y="402" width="340" height="96" rx="10" fill="#f8fafc" stroke="#cbd5e1"/>
  <text x="482" y="424" font-size="13" font-family="Arial, sans-serif" fill="#0f172a">Ubuntu ISO - 64%</text>
  <rect x="482" y="434" width="260" height="8" rx="4" fill="#dbeafe"/>
  <rect x="482" y="434" width="166" height="8" rx="4" fill="#3b82f6"/>
  <rect x="482" y="451" width="56" height="24" rx="6" fill="#eab308"/>
  <rect x="544" y="451" width="56" height="24" rx="6" fill="#16a34a"/>
  <rect x="606" y="451" width="56" height="24" rx="6" fill="#dc2626"/>
  <text x="495" y="468" font-size="11" font-family="Arial, sans-serif" fill="#ffffff">Pause</text>
  <text x="555" y="468" font-size="11" font-family="Arial, sans-serif" fill="#ffffff">Resume</text>
  <text x="620" y="468" font-size="11" font-family="Arial, sans-serif" fill="#ffffff">Delete</text>
  <rect x="470" y="510" width="340" height="78" rx="10" fill="#f8fafc" stroke="#cbd5e1"/>
  <text x="482" y="534" font-size="13" font-family="Arial, sans-serif" fill="#334155">Search (Jackett/Prowlarr)</text>
  <rect x="482" y="542" width="250" height="32" rx="6" fill="#ffffff" stroke="#cbd5e1"/>
  <rect x="740" y="542" width="58" height="32" rx="6" fill="#7c3aed"/>
  <text x="753" y="563" font-size="12" font-family="Arial, sans-serif" fill="#ffffff">Search</text>
  <rect x="470" y="604" width="164" height="40" rx="8" fill="#0f766e"/>
  <rect x="646" y="604" width="164" height="40" rx="8" fill="#4f46e5"/>
  <text x="515" y="630" font-size="14" font-family="Arial, sans-serif" fill="#ffffff" font-weight="700">Dashboard</text>
  <text x="707" y="630" font-size="14" font-family="Arial, sans-serif" fill="#ffffff" font-weight="700">Options</text>
</svg>
