<svg xmlns="http://www.w3.org/2000/svg" width="1280" height="800" viewBox="0 0 1280 800">
  <rect width="1280" height="800" fill="#e2e8f0"/>
  <rect x="260" y="70" width="760" height="660" rx="16" fill="#ffffff" stroke="#cbd5e1" stroke-width="2"/>
  <text x="300" y="118" font-size="30" font-family="Arial, sans-serif" fill="#0f172a" font-weight="700">Confirm Add to: Home qBittorrent</text>
  <text x="300" y="144" font-size="13" font-family="Arial, sans-serif" fill="#475569">Quick check before send: tags/category/directory are optional and default from profile.</text>
  <text x="300" y="186" font-size="15" font-family="Arial, sans-serif" fill="#334155" font-weight="700">Torrent URL</text>
  <rect x="300" y="196" width="680" height="38" rx="8" fill="#f8fafc" stroke="#cbd5e1"/>
  <text x="314" y="220" font-size="13" font-family="Arial, sans-serif" fill="#64748b">magnet:?xt=urn:btih:9f6...example</text>
  <text x="300" y="266" font-size="15" font-family="Arial, sans-serif" fill="#334155" font-weight="700">Save Path</text>
  <rect x="300" y="276" width="320" height="38" rx="8" fill="#ffffff" stroke="#cbd5e1"/>
  <text x="314" y="300" font-size="13" font-family="Arial, sans-serif" fill="#334155">/data/downloads/linux</text>
  <text x="640" y="266" font-size="15" font-family="Arial, sans-serif" fill="#334155" font-weight="700">Category</text>
  <rect x="640" y="276" width="160" height="38" rx="8" fill="#ffffff" stroke="#cbd5e1"/>
  <text x="654" y="300" font-size="13" font-family="Arial, sans-serif" fill="#334155">linux</text>
  <text x="820" y="266" font-size="15" font-family="Arial, sans-serif" fill="#334155" font-weight="700">Tags</text>
  <rect x="820" y="276" width="160" height="38" rx="8" fill="#ffffff" stroke="#cbd5e1"/>
  <text x="834" y="300" font-size="13" font-family="Arial, sans-serif" fill="#334155">iso,stable</text>
  <text x="300" y="346" font-size="15" font-family="Arial, sans-serif" fill="#334155" font-weight="700">File Selection</text>
  <rect x="300" y="356" width="680" height="250" rx="10" fill="#f8fafc" stroke="#cbd5e1"/>
  <rect x="320" y="378" width="18" height="18" rx="4" fill="#2563eb"/>
  <text x="350" y="392" font-size="13" font-family="Arial, sans-serif" fill="#0f172a">ubuntu-24.04-live-server-amd64.iso (2.6 GB)</text>
  <rect x="320" y="408" width="18" height="18" rx="4" fill="#2563eb"/>
  <text x="350" y="422" font-size="13" font-family="Arial, sans-serif" fill="#0f172a">SHA256SUMS (2 KB)</text>
  <rect x="320" y="438" width="18" height="18" rx="4" fill="#2563eb"/>
  <text x="350" y="452" font-size="13" font-family="Arial, sans-serif" fill="#0f172a">README.txt (6 KB)</text>
  <rect x="320" y="476" width="240" height="34" rx="8" fill="#f1f5f9" stroke="#cbd5e1"/>
  <text x="334" y="499" font-size="12" font-family="Arial, sans-serif" fill="#334155">Force Start</text>
  <rect x="526" y="484" width="28" height="18" rx="9" fill="#22c55e"/>
  <circle cx="544" cy="493" r="7" fill="#fff"/>
  <rect x="320" y="520" width="240" height="34" rx="8" fill="#f1f5f9" stroke="#cbd5e1"/>
  <text x="334" y="543" font-size="12" font-family="Arial, sans-serif" fill="#334155">Skip hash check</text>
  <rect x="526" y="528" width="28" height="18" rx="9" fill="#cbd5e1"/>
  <circle cx="536" cy="537" r="7" fill="#fff"/>
  <rect x="760" y="620" width="100" height="42" rx="8" fill="#e2e8f0"/>
  <text x="790" y="646" font-size="14" font-family="Arial, sans-serif" fill="#334155">Cancel</text>
  <rect x="872" y="620" width="108" height="42" rx="8" fill="#2563eb"/>
  <text x="888" y="646" font-size="14" font-family="Arial, sans-serif" fill="#fff">Confirm &amp; Add</text>
</svg>
